/* XPM */
static char *result[] = {
/* columns rows colors chars-per-pixel */
"64 64 117 2 ",
"   c #8D6233",
".  c #8F6434",
"X  c #906434",
"o  c #906534",
"O  c #916535",
"+  c #926635",
"@  c #926636",
"#  c #936636",
"$  c #936736",
"%  c #946736",
"&  c #946836",
"*  c #946837",
"=  c #956837",
"-  c #956937",
";  c #966937",
":  c #966938",
">  c #976A38",
",  c #986B38",
"<  c #986B39",
"1  c #996B39",
"2  c #996C39",
"3  c #9A6C39",
"4  c #9A6C3A",
"5  c #9A6D3A",
"6  c #9B6D3A",
"7  c #9B6E3A",
"8  c #9C6D3A",
"9  c #9C6E3A",
"0  c #9C6E3B",
"q  c #9D6E3B",
"w  c #9C6F3B",
"e  c #9D6F3B",
"r  c #9E6F3B",
"t  c #9E6F3C",
"y  c #9E703C",
"u  c #9F703C",
"i  c #9F713C",
"p  c #A0713D",
"a  c #A0723D",
"s  c #A1723D",
"d  c #A2733E",
"f  c #A3743E",
"g  c #A4743E",
"h  c #A4743F",
"j  c #A4753F",
"k  c #A5753F",
"l  c #A4763F",
"z  c #A4773F",
"x  c #A87941",
"c  c #A97942",
"v  c #AA7942",
"b  c #A97A42",
"n  c #A87B42",
"m  c #A97B42",
"M  c #AB7A42",
"N  c #AA7B42",
"B  c #AA7B43",
"V  c #AC7A43",
"C  c #AC7B43",
"Z  c #AD7B43",
"A  c #AA7C43",
"S  c #AB7C43",
"D  c #AC7C43",
"F  c #AD7C43",
"G  c #AC7D43",
"H  c #AD7C44",
"J  c #AC7D44",
"K  c #AD7D44",
"L  c #AE7C44",
"P  c #AE7D44",
"I  c #AF7D44",
"U  c #AE7E44",
"Y  c #AE7E45",
"T  c #AF7E45",
"R  c #B07E45",
"E  c #B17E45",
"W  c #B07F45",
"Q  c #B17F45",
"!  c #B17F46",
"~  c #B27F46",
"^  c #B18046",
"/  c #B28046",
"(  c #B38046",
")  c #B38047",
"_  c #B38147",
"`  c #B48147",
"'  c #B58147",
"]  c #B58247",
"[  c #B58248",
"{  c #B68248",
"}  c #B78248",
"|  c #B68348",
" . c #B78348",
".. c #B78349",
"X. c #B78449",
"o. c #B88449",
"O. c #BA854A",
"+. c #BA864A",
"@. c #BE894C",
"#. c #3388BE",
"$. c #3894CE",
"%. c #3EA0DE",
"&. c #3FA0DE",
"*. c #408FC2",
"=. c #52A1D4",
"-. c #6BAED8",
";. c #4BA6E0",
":. c #43ADEF",
">. c #48B8FF",
",. c #64B3E4",
"<. c #74BFF0",
"1. c #6BC5FF",
"2. c #DAE9F2",
"3. c #DCEEF8",
"4. c #F3F9FC",
"5. c #F3FAFF",
"6. c white",
/* pixels */
"% X   q ` ( e 1 V o.| ) ` ` ` ` ' { } _ K B A S S S S S S S S S S S S S S S S S S S S S S S S S A m m D !  .o.L e * ; > $ + + @ ",
"u e 0 f P c 4 5 C o.| ) ` ` ` _ / / / W J A S S S S S S S S S S S S S S S S S S S S S S S S S S K J G U ~ | X.L e % * 2 e u y t ",
"I R E C g 2 = e L X.{ ) ` ` ' / U D D G S S S S S S S S S S S S S S S S S S S S S S S S S S S K W / / / ( { ..L t @ $ e v ~ E P ",
"E ` [ M 4 . + u P  .{ ) ` ` ' / K S D J S S S S S S S S S S S S S S S S S S S S S S S S S N m K ) { { ` ) {  .L y # $ e C ` ) Q ",
"i p s r 1 % & y L  .{ ) ` ` ` _ / / ) ^ K A S S S S S S S S S S S S S S S S S S S S S S S m m J / { [ ` ) {  .L t * - 5 y s p i ",
"+ O O $ : = # 7 H X.{ ) ` ` ` ` ] [ ` ! G N B S A A A A A A A A A A A A A A A A S A A S K K J U / ` ` _ ( { ..L 0 $ * ; # O O + ",
"+ + + $ = @ O 6 F X.| ( ` ` ` ' [ _ T S B B B A B B B B B B B B B B B B B B B B A N m D W ( / / _ ` ` ` ( { X.H 8 + % - $ + + + ",
"t y y y y 9 6 d I | [ ) ` ` ` ` ' / K S J K K K K K K K K K K K K K K K K K K K K J G T _ { [ ` ` ` ` ` ) {  .I a < 2 0 e y y t ",
"L L L L L H F I ( ' ` ` ` ` ` ` ` _ / ^ / / / / / / / / / / / / / / / / / / / / / / / ( ` ' ` ` ` ` ` ` ` ] [ ! b l z x C I I L ",
"o.X... . .X.X.| ' ` ` ` ` ` ` ` ` ` ] [ ] ' ' ' ' ' ' ' ' ' ' ' ' ' ' ' ' ' ' ' ' ] ] ' ` ` ` ` ` ` ` ` ` ` ` _ W Y U ^ [ o.X. .",
" .| { { { { | [ ` ` ` ` ` ` ` ` ` ` ` ' ' ` ' ' ' ' ' ' ' ' ' ' ' ' ' ' ' ' ' ' ' ' ' ` ` ` ' ' ` ` ` ` ` ` ` ` ` _ _ ` [ { { { ",
"! ~ ( ) ) ( ( ) ` ` ` ` ` ` ` ` ` ` ` ` ` ` ` ` ` ` ` ` ` ` ` ` ` ` ` ` ` ` ` ` ` ` ` ` ` _ / / ` ' ` ` ` ` ` ` ` ` ` ` ) ( ) ) ",
"D U / ` ` _ ` ` ` ` ` ` ` ` ` ` ` ` ` ` ` ` ` ` ` ` ` ` ` ` ` ` ` ` ` ` ` ` ` ` ` ` ` ` ' / K U ) { ' ` ` ` ` ` ` ` ` ` ` _ ` ` ",
"m G / { [ ` ` ` ` ` ` ` ` ` ` ` ` ` ` ` ` ` ` ` ` ' ' ` ` ` ` ` ` ` ` ` ` ` ` ` ` ` ` ' { / D S W ` ` ` ` ` ` ` ` ` ` ` ` ` ` ` ",
"m J / { { ` ` ` ` ` ` ` ` ` ' ' ` ` ` ` ` ` ` ` ' ] ] ' ` ` ` ` ` ` ' ' ` ` ` ` ` ` ` ' { ( K m S T / ` ` ` ` ` ` ` ` ` ' ' ` ` ",
"A K W ) / / _ ` ` ` ` ' ' ` / / ` ' ' ` ` ` ` ` ( / / ( ` ` ` ` ' ` / / ` ' ' ` ` ` ` ` _ Q K N m J / { ' ` ` ` ` ` ` _ / / _ ` ",
"S S K K J U / ` ` ` ` { { ( U U ( { { ` ` ` ` / T D D T / ` ` ` { ( U P ( { { ` ` ` ` / Y D S A m K ( { ' _ ` ` ` ` ' / K U / ' ",
"S S S m m J / { [ ` / / ) W S S W ) / / ` [ { / K n n K / { [ ` ` W S S W ) / / ` [ { / J m A S S K W _ ' ` ` ` ` [ { / S D / { ",
"S S S N m K / { { ) Y J K J S S J K J Y ) { { ( 6.6.6.6.6.6.6.6.6.6.6.6.6.6.6.6.6.{ { / K m A S S S D T _ [ ` ` ` { { / S G / } ",
"S S S S S K W _ _ W D m m S S S S m m D W _ _ 6.6.6.6.6.6.6.6.6.6.6.6.6.6.6.6.6.6.6._ W K A S S S A m S W ` ' ` / / ( W D J W _ ",
"S S S S S S J K K J S A A S S S S A A S J K 6.6.6.6.6.6.6.6.6.6.6.6.6.6.6.6.6.6.6.6.6.J S S S S S S S A S T ` ` T G K K S S J K ",
"S S S S S S A B N A S S S S S S S S S S A 6.6.6.4.,.&.&.&.&.&.&.:.>.>.>.>.>.>.1.5.6.6.6.S S S S S S D A m G ! ! J m m S S S A B ",
"S S S S S S S A A S S S S S S S S S S S 6.6.6.4.,.&.&.&.&.&.&.&.:.>.>.>.>.>.>.>.1.5.6.6.6.S S S S S S S A S K K S B A S S S S A ",
"S S S S S S S S S S S S S S S S S S S 6.6.6.4.,.&.&.&.&.&.&.&.&.:.>.>.>.>.>.>.>.>.1.5.6.6.6.S S S S S S S S A A S S S S S S S S ",
"S S S S S S S S S S S S S S S S S S 6.6.6.4.,.&.&.&.&.&.&.&.&.&.:.>.>.>.>.>.>.>.>.>.1.5.6.6.6.S S S S S S S A A S S S S S S S S ",
"S S S S S S S S S S S S S S S S S 6.6.6.4.,.&.&.&.&.&.&.&.&.&.&.:.>.>.>.>.>.>.>.>.>.>.1.5.6.6.6.S S S S S S S S S S S S S S S S ",
"S S S S S S S S S S S S S S S S 6.6.6.4.,.&.&.&.&.&.&.&.&.&.&.&.:.>.>.>.>.>.>.>.>.>.>.>.1.5.6.6.6.S S S S S S S S S S S S S S S ",
"S S S S S S S S S S S S S S S 6.6.6.4.,.&.&.&.&.&.&.&.&.&.&.&.&.:.>.>.>.>.>.>.>.>.>.>.>.>.1.5.6.6.6.S S S S S S S S S S S S S S ",
"S S S S S S S S S S S S S S S 6.6.6.-.$.$.$.$.$.$.$.$.$.$.$.$.$.%.:.:.:.:.:.:.:.:.:.:.:.:.:.<.6.6.6.S S S S S S S S S S S S S S ",
"S S S S S S S S S S S S S S S 6.6.6.2.*.#.#.#.#.#.#.#.#.#.#.#.#.$.&.&.&.&.&.&.&.&.&.&.&.&.;.3.6.6.6.S S S S S S S S S S S S S S ",
"S S S S S S S S S S S S S S S S 6.6.6.2.*.#.#.#.#.#.#.#.#.#.#.#.$.&.&.&.&.&.&.&.&.&.&.&.;.3.6.6.6.S S S S S S S S S S S S S S S ",
"S S S S S S S S S S S S S S S S S 6.6.6.2.*.#.#.#.#.#.#.#.#.#.#.$.&.&.&.&.&.&.&.&.&.&.;.3.6.6.6.S S S S S S S S S S S S S S S S ",
"S S S S S S S S S S S S S S S S S S 6.6.6.2.*.#.#.#.#.#.#.#.#.#.$.&.&.&.&.&.&.&.&.&.;.3.6.6.6.S S S S S S S S S S S S S S S S S ",
"S S S S S S S S S S S S S S S S S S S 6.6.6.2.*.#.#.#.#.#.#.#.#.$.&.&.&.&.&.&.&.&.;.3.6.6.6.S S S S S S S S S S S S S S S S S S ",
"S S S S S S S S S S S S S S S S S S S S 6.6.6.2.*.#.#.#.#.#.#.#.$.&.&.&.&.&.&.&.;.3.6.6.6.S S S S S S S S S S S S S S S S S S S ",
"S S S S S S S S S S S S S S S S S S S S S 6.6.6.2.*.#.#.#.#.#.#.$.&.&.&.&.&.&.;.3.6.6.6.S S S S S S S S S S S S S S S S S S S S ",
"S S S S S S S S S S S S S S S S S S S S S S 6.6.6.2.*.#.#.#.#.#.$.&.&.&.&.&.;.3.6.6.6.S S S S S S S S S S S S S S S S S S S S S ",
"S S S S S S S S S S S S S S S S S S S S S S S 6.6.6.2.*.#.#.#.#.$.&.&.&.&.;.3.6.6.6.S S S S S S S S S S S S S S S S S S S S S S ",
"S S S S S S S S S S S S S S S S S S S S S S S S 6.6.6.2.*.#.#.#.$.&.&.&.;.3.6.6.6.6.S S S S S S S S S S S S S S S S S S S S S S ",
"S S S S S S S S S S S S S S S S S S S S S S S S S 6.6.6.2.*.#.#.$.&.&.;.3.6.6.6.6.S S S S S S S S S S S S S S S S S S S S S S S ",
"S S S S S S S S S S S S S S S S S S S S S S S S S S 6.6.6.2.*.#.$.&.;.3.6.6.6.6.S S S S S S S S S S S S S S S S S S S S S S S S ",
"A S S S S A S S S S S S S S S S S S S S S S S S S S S 6.6.6.2.*.$.;.3.6.6.6.6.S S S S S S S S S S S S S S S S S S S S S S S S S ",
"B A S S A A S S S S S S S S S S S S S S S S S S S S S S 6.6.6.2.=.3.6.6.6.6.S S S S S S S S S S S S S S S S S S S S S S S S S S ",
"K J S S K K S B A S S S S S S S S A A A A A A S S S S S S 6.6.6.6.6.6.6.6.S S S S A A S S S S A A S S S S S S A A A A S S S S S ",
"_ W G J ! ^ J m m S S S S S S S A B B B B B B A S S S S A B 6.6.6.6.6.6.S S S S A N N A S S A N N A S S S S A B B B B A S S S S ",
"} / D D ( ' T D K K S A S S S S J K K K K K K J S B B S J K K 6.6.6.S S S S A S J K K J S S J K K J S A S D K K K K K J S A S S ",
"{ / D S / [ ) / ( W D N S S S K ! ( / / / ( ) W G m m G W ( / / ( ! K S S S N D W _ ` W S S W ` _ W D m N K ! ( / / ) W D N S D ",
"' / U K / ' ' [ { _ T D S N m K ( { { ' ' [ { _ T D D T _ { ] [ { ( K m N S D T _ { { / P P / { { _ T S m K ( { [ ] { _ T S A A ",
"` _ / / _ ` ` ' ' ` _ W D m m J / { [ ` ` ' ' ` ( / / ( ` ' ` ] { / J m m D W _ ` ' ] ` / / ` ] ' ` ` R S S / { [ ` ` ' ` W S m ",
"` ` ' ' ` ` ` ` _ ` [ _ T D D T / ` ` ` ` ` ` ` ' ] ] ' ` ` _ ` ` / T D D T _ [ ` _ _ ` ' ' ` _ _ ' { ) U K / ' ` _ _ ` { ) Y D ",
"` ` ` ` ` ` ` ` ` ` ' ` ( / / ( ` ` ` ` ` ` ` ` ` ' ' ` ` ` ` ` ` ` ( / / ( ` ' ` ` ` ` ` ` ` ` ` ` ' ` / / _ ` ` ` ` ` ' ` ( / ",
"` ` _ ` ` ` ` ` ` ` ` ` ' ] ] ' ` ` ` ` ` ` ` ` ` ` ` ` ` ` ` ` ` ` ' ] ] ' ` ` ` ` ` ` ` ` ` ` ` ` ` ` ' ' ` ` ` ` ` ` _ ` ` ' ",
") ) ( ) ` ` ) ) ` ` ` ` ` ' ' ` ` ` ` ` ` ` ` ` ` ` ` ` ` ` ` ` ` ` ` ` ` ` ` ` ` ` ` ` ` ` ` ` ` ` ` ` ` ` ` _ ) ) ) ) ( ) ` ` ",
"| | | [ ` ` [ { ` ` ` ` ` ` ` ` ` ` ` ' ' ' ' ' ' ' ' ' ' ' ' ' ' ` ` ` ` ` ` ' ' ' ' ` ` ` ` ` ` ` ` ` ` ` ` ] { { { { { { { [ ",
"o.o.o.| ` ' |  .] ` ` ` ` ` ` ` ` ` ' ] ] ' ' ' ' ' ' ' ' ' ' ' ' ' ' ' ' ' ' ' ' ] ] ' ` ` ` ` ` ` ` ` ` ` ` [  .X.............",
"C C Z R ` ( I P / ] ` ` ` ` ` ` ` ` / / / / / / / / / / / / / / / / / / / / / / / / / / ` ` ` ` ` ` ` ` ` ` _ ! I H L L L L L L ",
"5 3 5 k ~ I s u L ..{ ) ` ` ` ` ` / U J J K K K K K K K K K K K K K K K K K K K K J J U / ` ` ` ` ` ` ` ` ` W b a 8 0 t t y y t ",
"0 : X 6 / E 4 : M o.| ( ` ` ` ' [ / J m m A A B B B B B B B B B B B B B B B B A A m m J / { [ ` ` ` ` ` ` _ Y l < + $ * $ + + + ",
"R h $ < ~ ( 9 > M o.| ) ` ` _ ' { ( K m N S S A A A A A A A A A A A A A A A A S S N m K ( { { ' ` ` ` ` ` _ U z 2 % * - @ O O + ",
"@.` j s C v 6 6 Z o.{ ) ` ` ' ' _ W K S S S S S S S S S S S S S S S S S S S S S S S S K W / / / _ ` ` ` ` ` ^ x w - ; 5 y s p i ",
"+.O.{ Z d < * e L ..{ ( _ ' { ` T D S S S S S S S S S S S S S S S S S S S S S S S S S S D S S K / ' ` ` ) [ [ C r $ $ e C ` ) Q ",
"v L ! v 6 o + y L  .{ ) ` ` ) W S N A S S S S S S S S S S S S S S S S S S S S S S S S S J G D U / ' ` _ ( { o.I y @ $ e v ~ E P ",
"9 e u q < $ $ r L  .[ ` ` ( Y S A S S S S S S S S S S S S S S S S S S S S S S S S S A J W / / / _ ` ` ` ( { X.L e $ * 2 e u y t ",
"% $ + % , > = e L ..[ ` ' / D m A D S S S S S S S S S S S S S S S S S S S S S S S A B K _ } { ' ` ` ` ` ) {  .L e * ; > $ + + @ "
};
