/* XPM */
static char *result[] = {
/* columns rows colors chars-per-pixel */
"64 64 116 2 ",
"   c #8D6233",
".  c #8F6434",
"X  c #906434",
"o  c #906534",
"O  c #916535",
"+  c #926635",
"@  c #926636",
"#  c #936636",
"$  c #936736",
"%  c #946736",
"&  c #946836",
"*  c #946837",
"=  c #956837",
"-  c #956937",
";  c #966937",
":  c #966938",
">  c #976A38",
",  c #986B38",
"<  c #986B39",
"1  c #996B39",
"2  c #996C39",
"3  c #9A6C39",
"4  c #9A6C3A",
"5  c #9A6D3A",
"6  c #9B6D3A",
"7  c #9B6E3A",
"8  c #9C6D3A",
"9  c #9C6E3A",
"0  c #9C6E3B",
"q  c #9D6E3B",
"w  c #9C6F3B",
"e  c #9D6F3B",
"r  c #9E6F3B",
"t  c #9E6F3C",
"y  c #9E703C",
"u  c #9F703C",
"i  c #9F713C",
"p  c #A0713D",
"a  c #A0723D",
"s  c #A1723D",
"d  c #A2733E",
"f  c #A3743E",
"g  c #A4743E",
"h  c #A4743F",
"j  c #A4753F",
"k  c #A5753F",
"l  c #A4763F",
"z  c #A4773F",
"x  c #A87941",
"c  c #A97942",
"v  c #AA7942",
"b  c #A97A42",
"n  c #A97B42",
"m  c #AB7A42",
"M  c #AA7B43",
"N  c #AC7A43",
"B  c #AC7B43",
"V  c #AD7B43",
"C  c #AA7C43",
"Z  c #AB7C43",
"A  c #AC7C43",
"S  c #AD7C43",
"D  c #AC7D43",
"F  c #AD7C44",
"G  c #AC7D44",
"H  c #AD7D44",
"J  c #AE7C44",
"K  c #AE7D44",
"L  c #AF7D44",
"P  c #AE7E44",
"I  c #AE7E45",
"U  c #B07E45",
"Y  c #B17E45",
"T  c #B07F45",
"R  c #B17F45",
"E  c #B17F46",
"W  c #B27F46",
"Q  c #B18046",
"!  c #B28046",
"~  c #B38046",
"^  c #B38047",
"/  c #B38147",
"(  c #B48147",
")  c #B58147",
"_  c #B58247",
"`  c #B58248",
"'  c #B68248",
"]  c #B78248",
"[  c #B68348",
"{  c #B78348",
"}  c #B78349",
"|  c #B78449",
" . c #B88449",
".. c #BA854A",
"X. c #BA864A",
"o. c #BE894C",
"O. c #3EA0DD",
"+. c #3EA0DE",
"@. c #3FA0DE",
"#. c #3EA0DF",
"$. c #4BA6E0",
"%. c #57ADE2",
"&. c #64B3E4",
"*. c #70B8E6",
"=. c #7DBEE8",
"-. c #89C4EA",
";. c #95CAEC",
":. c #A1D0EF",
">. c #ACD6F0",
",. c #B8DCF2",
"<. c #C4E2F4",
"1. c #D0E8F6",
"2. c #DCEEF8",
"3. c #E8F3FA",
"4. c #F3F9FC",
"5. c white",
/* pixels */
"% X   q ( ~ e 1 N  .[ ^ ( ( ( ( ) ' ] / H M C Z Z Z Z Z Z Z Z Z Z Z Z Z Z Z Z Z Z Z Z Z Z Z Z Z C n n A E {  .J e * ; > $ + + @ ",
"u e 0 f K c 4 5 B  .[ ^ ( ( ( / ! ! ! T +.+.+.Z Z Z Z Z Z Z Z Z Z Z Z Z Z Z Z Z Z Z Z Z Z Z Z Z H G D P W [ | J e % * 2 e u y t ",
"L U Y B g 2 = e J | ' ^ ( ( ) ! P A +.+.+.+.+.Z Z Z Z Z Z Z Z Z +.+.@.@.@.@.@.@.@.@.@.@.@.@.@.H T ! ! ! ~ ' } J t @ $ e v W Y K ",
"Y ( ` m 4 . + u K { ' ^ ( ( ) ! H Z +.+.+.+.+.Z Z Z Z Z Z O.@.@.@.@.@.@.@.@.@.@.@.@.@.@.@.@.@.+.^ ' ' ( ^ ' { J y # $ e B ( ^ R ",
"i p s r 1 % & y J { ' ^ ( ( ( / ! +.+.+.+.+.+.Z Z Z +.@.@.@.@.@.@.@.@.@.@.@.@.@.@.@.@.@.@.@.@.+.! ' ` ( ^ ' { J t * - 5 y s p i ",
"+ O O $ : = # 7 F | ' ^ ( ( ( ( +.+.+.+.+.+.+.Z O.@.@.@.@.@.@.@.@.@.@.@.@.@.@.@.@.@.@.@.@.@.+.P ! ( ( / ~ ' } J 0 $ * ; # O O + ",
"+ + + $ = @ O 6 S | [ ~ ( ( ( +.+.+.+.+.+.+.#.+.@.@.@.@.@.@.@.@.@.@.@.@.@.@.@.@.@.@.@.@.@.+.! ! / ( ( ( ~ ' | F 8 + % - $ + + + ",
"t y y y y 9 6 d L [ ` ^ ( ( +.+.+.+.+.+.+.+.@.@.@.@.@.@.@.@.@.@.@.@.@.@.@.@.@.@.@.@.@.@.+.' ` ( ( ( ( ( ^ ' { L a < 2 0 e y y t ",
"J J J J J F S L ~ ) ( ( ( ( +.+.+.+.+.#.@.@.@.@.@.@.@.@.@.@.@.@.@.@.@.@.@.@.@.@.@.@.@.+.+.) ( ( ( ( ( ( ( _ ` E b l z x B L L J ",
" .| } { { | | [ ) ( ( ( ( +.+.+.+.+.+.@.@.@.@.@.@.@.@.@.@.@.@.@.@.@.@.@.@.@.@.@.@.@.@.@.+.+.+.+.( ( ( ( ( ( ( / T I P Q `  .| { ",
"{ [ ' ' ' ' [ ` ( ( ( ( +.+.+.+.+.+.@.@.@.@.@.@.@.@.@.@.@.@.@.@.@.@.@.@.@.@.@.@.@.@.@.@.@.@.O.+.+.+.( ( ( ( ( ( ( / / ( ` ' ' ' ",
"E W ~ ^ ^ ~ ~ ^ ( ( ( ( +.+.+.+.+.@.@.@.@.@.@.@.@.@.@.@.@.@.@.@.@.@.@.@.@.@.@.@.@.@.@.@.@.@.@.+.+.+.+.+.( ( ( ( ( ( ( ( ^ ~ ^ ^ ",
"A P ! ( ( / ( ( ( ( ( +.+.+.+.@.@.@.@.@.@.@.@.@.@.@.@.@.&.*.*.*.*.*.*.&.@.@.@.@.@.@.@.@.@.@.@.@.@.+.+.+.+.+.( ( ( ( ( ( ( / ( ( ",
"n D ! ' ` ( ( ( ( ( ( +.+.+.+.@.@.@.@.@.@.@.@.@.$.-.1.5.5.5.5.5.5.5.5.5.5.1.-.$.@.@.@.@.@.@.@.@.@.@.+.+.+.+.+.+.( ( ( ( ( ( ( ( ",
"n G ! ' ' ( ( ( ( ( +.+.+.@.@.@.@.@.@.@.@.@.%.,.4.5.5.5.5.5.5.5.5.5.5.5.5.5.5.4.>.%.@.@.@.@.@.@.@.@.@.+.+.+.+.+.+.( ( ( ) ) ( ( ",
"C H T ^ ! ! / ( ( ( +.+.@.@.@.@.@.@.@.@.$.>.5.5.5.5.5.5.5.5.5.5.5.5.5.5.5.5.5.5.5.4.:.$.@.@.@.@.@.@.@.+.+.+.+.+.+.+.( / ! ! / ( ",
"Z Z H H G P ! ( ( +.+.+.@.@.@.@.@.@.@.*.3.5.5.5.5.5.5.5.5.5.5.5.5.5.5.5.5.5.5.5.5.5.5.2.%.@.@.@.@.@.@.@.+.+.+.+.+.+.+.! H P ! ) ",
"Z Z @.@.@.O.! ' ` +.+.@.@.@.@.@.@.@.-.5.5.5.5.5.5.5.5.5.5.5.5.5.5.5.5.5.5.5.5.5.5.5.5.5.4.&.@.@.@.@.@.@.@.+.+.+.+.+.+.+.+.A ! ' ",
"Z O.@.@.@.@.+.' +.#.@.@.@.@.@.@.@.&.5.5.5.5.5.5.5.5.5.5.5.5.5.5.5.5.5.5.5.5.5.5.5.5.5.5.5.3.$.@.@.@.@.@.@.@.+.+.+.+.+.+.+.+.! ] ",
"Z O.@.@.@.@.@.+.+.+.@.@.@.@.@.@.&.4.5.5.5.5.5.5.5.5.5.5.5.5.5.5.5.5.5.5.5.5.5.5.5.5.5.5.5.5.2.$.@.@.@.@.@.@.@.+.+.+.+.+.+.+.T / ",
"Z O.@.@.@.@.@.@.+.@.@.@.@.@.@.$.2.5.5.5.5.5.5.5.5.5.5.5.5.5.5.5.5.5.5.5.5.5.5.5.5.5.5.5.5.5.5.<.@.@.@.@.@.@.@.@.+.+.+.+.+.+.+.H ",
"Z O.@.@.@.@.@.@.@.@.@.@.@.@.@.:.5.5.5.5.5.5.5.5.5.5.5.5.5.5.5.5.5.5.5.5.5.5.5.5.5.5.5.5.5.5.5.5.-.@.@.@.@.@.@.@.+.+.+.+.+.+.+.+.",
"Z O.@.@.@.@.@.@.@.@.@.@.@.@.%.5.5.5.5.5.5.5.5.5.5.5.5.5.5.5.5.5.5.5.5.5.5.5.5.5.5.5.5.5.5.5.5.5.4.$.@.@.@.@.@.@.@.#.+.+.+.+.+.C ",
"Z O.@.@.@.@.@.@.@.@.@.@.@.@.,.5.5.5.5.5.5.5.5.5.5.5.5.5.5.5.5.5.5.5.5.5.5.5.5.5.5.5.5.5.5.5.5.5.5.,.@.@.@.@.@.@.@.@.Z Z Z Z Z Z ",
"Z O.@.@.@.@.@.@.@.@.@.@.@.%.5.5.5.5.5.5.5.5.5.5.5.5.5.5.5.5.5.5.5.5.5.5.5.5.5.5.5.5.5.5.5.5.5.5.5.4.$.@.@.@.@.@.@.@.+.Z Z Z Z Z ",
"Z +.@.@.@.@.@.@.@.@.@.@.@.;.5.5.5.5.5.5.5.5.5.5.5.5.5.5.5.5.5.5.5.5.5.5.5.5.5.5.5.5.5.5.5.5.5.5.5.5.;.@.@.@.@.@.@.@.@.Z Z Z Z Z ",
"Z Z @.@.@.@.@.@.@.@.@.@.@.2.5.5.5.5.5.5.5.5.5.5.5.5.5.5.5.5.5.5.5.5.5.5.5.5.5.5.5.5.5.5.5.5.5.5.5.5.2.@.@.@.@.@.@.@.@.Z Z Z Z Z ",
"Z Z @.@.@.@.@.@.@.@.@.@.$.5.5.5.5.5.5.5.5.5.5.5.5.5.5.5.5.5.5.5.5.5.5.5.5.5.5.5.5.5.5.5.5.5.5.5.5.5.5.@.@.@.@.@.@.@.@.+.Z Z Z Z ",
"Z Z @.@.@.@.@.@.@.@.@.@.*.5.5.5.5.5.5.5.5.5.5.5.5.5.5.5.5.5.5.5.5.5.5.5.5.5.5.5.5.5.5.5.5.5.5.5.5.5.5.*.@.@.@.@.@.@.@.@.Z Z Z Z ",
"Z Z @.@.@.@.@.@.@.@.@.@.;.5.5.5.5.5.5.5.5.5.5.5.5.5.5.5.5.5.5.5.5.5.5.5.5.5.5.5.5.5.5.5.5.5.5.5.5.5.5.-.@.@.@.@.@.@.@.@.O.Z Z Z ",
"Z Z +.@.@.@.@.@.@.@.@.@.:.5.5.5.5.5.5.5.5.5.5.5.5.5.5.5.5.5.5.5.5.5.5.5.5.5.5.5.5.5.5.5.5.5.5.5.5.5.5.:.@.@.@.@.@.@.@.@.@.Z Z Z ",
"Z Z +.@.@.@.@.@.@.@.@.@.:.5.5.5.5.5.5.5.5.5.5.5.5.5.5.5.5.5.5.5.5.5.5.5.5.5.5.5.5.5.5.5.5.5.5.5.5.5.5.:.@.@.@.@.@.@.@.@.@.Z Z Z ",
"Z Z Z @.@.@.@.@.@.@.@.@.:.5.5.5.5.5.5.5.5.5.5.5.5.5.5.5.5.5.5.5.5.5.5.5.5.5.5.5.5.5.5.5.5.5.5.5.5.5.5.:.@.@.@.@.@.@.@.@.@.+.Z Z ",
"Z Z Z @.@.@.@.@.@.@.@.@.:.5.5.5.5.5.5.5.5.5.5.5.5.5.5.5.5.5.5.5.5.5.5.5.5.5.5.5.5.5.5.5.5.5.5.5.5.5.5.:.@.@.@.@.@.@.@.@.@.+.Z Z ",
"Z Z Z +.@.@.@.@.@.@.@.@.-.5.5.5.5.5.5.5.5.5.5.5.5.5.5.5.5.5.5.5.5.5.5.5.5.5.5.5.5.5.5.5.5.5.5.5.5.5.5.-.@.@.@.@.@.@.@.@.@.@.Z Z ",
"Z Z Z Z @.@.@.@.@.@.@.@.*.5.5.5.5.5.5.5.5.5.5.5.5.5.5.5.5.5.5.5.5.5.5.5.5.5.5.5.5.5.5.5.5.5.5.5.5.5.5.*.@.@.@.@.@.@.@.@.@.@.Z Z ",
"Z Z Z Z @.@.@.@.@.@.@.@.$.5.5.5.5.5.5.5.5.5.5.5.5.5.5.5.5.5.5.5.5.5.5.5.5.5.5.5.5.5.5.5.5.5.5.5.5.5.5.$.@.@.@.@.@.@.@.@.@.@.Z Z ",
"Z Z Z Z +.@.@.@.@.@.@.@.@.2.5.5.5.5.5.5.5.5.5.5.5.5.5.5.5.5.5.5.5.5.5.5.5.5.5.5.5.5.5.5.5.5.5.5.5.5.2.@.@.@.@.@.@.@.@.@.@.@.Z Z ",
"Z Z Z Z Z @.@.@.@.@.@.@.@.>.5.5.5.5.5.5.5.5.5.5.5.5.5.5.5.5.5.5.5.5.5.5.5.5.5.5.5.5.5.5.5.5.5.5.5.5.>.@.@.@.@.@.@.@.@.@.@.@.+.Z ",
"Z Z Z Z Z O.@.@.@.@.@.@.@.&.5.5.5.5.5.5.5.5.5.5.5.5.5.5.5.5.5.5.5.5.5.5.5.5.5.5.5.5.5.5.5.5.5.5.5.5.%.@.@.@.@.@.@.@.@.@.@.@.O.Z ",
"Z Z Z Z Z Z @.@.@.@.@.@.@.@.1.5.5.5.5.5.5.5.5.5.5.5.5.5.5.5.5.5.5.5.5.5.5.5.5.5.5.5.5.5.5.5.5.5.5.<.@.@.@.@.@.@.@.@.@.@.@.@.O.Z ",
"C +.+.+.+.+.+.@.@.@.@.@.@.@.*.5.5.5.5.5.5.5.5.5.5.5.5.5.5.5.5.5.5.5.5.5.5.5.5.5.5.5.5.5.5.5.5.5.5.*.@.@.@.@.@.@.@.@.@.@.@.@.O.Z ",
"+.+.+.+.+.+.+.+.@.@.@.@.@.@.@.1.5.5.5.5.5.5.5.5.5.5.5.5.5.5.5.5.5.5.5.5.5.5.5.5.5.5.5.5.5.5.5.5.>.@.@.@.@.@.@.@.@.@.@.@.@.@.O.Z ",
"H +.+.+.+.+.+.+.@.@.@.@.@.@.@.$.4.5.5.5.5.5.5.5.5.5.5.5.5.5.5.5.5.5.5.5.5.5.5.5.5.5.5.5.5.5.5.2.$.@.@.@.@.@.@.@.@.@.@.@.@.@.O.Z ",
"/ +.+.+.+.+.+.+.+.@.@.@.@.@.@.@.*.5.5.5.5.5.5.5.5.5.5.5.5.5.5.5.5.5.5.5.5.5.5.5.5.5.5.5.5.5.4.&.@.@.@.@.@.@.@.+.+.@.@.@.@.@.O.Z ",
"] ! +.+.+.+.+.+.+.+.@.@.@.@.@.@.@.-.5.5.5.5.5.5.5.5.5.5.5.5.5.5.5.5.5.5.5.5.5.5.5.5.5.5.5.4.&.@.@.@.@.@.@.@.#.+.H +.@.@.@.@.O.Z ",
"' ! A Z +.+.+.+.+.+.@.@.@.@.@.@.@.@.&.4.5.5.5.5.5.5.5.5.5.5.5.5.5.5.5.5.5.5.5.5.5.5.5.5.2.$.@.@.@.@.@.@.@.+.+.~ ! ! +.@.@.@.Z A ",
") ! P H ! +.+.+.+.+.+.@.@.@.@.@.@.@.@.&.4.5.5.5.5.5.5.5.5.5.5.5.5.5.5.5.5.5.5.5.5.5.5.2.$.@.@.@.@.@.@.@.@.+.+.' ` _ ' / O.O.C C ",
"( / ! ! / ( +.+.+.+.+.O.@.@.@.@.@.@.@.@.%.<.5.5.5.5.5.5.5.5.5.5.5.5.5.5.5.5.5.5.5.5.,.$.@.@.@.@.@.@.@.@.+.+.! ' ` ( ( ) ( T Z n ",
"( ( ) ) ( ( ( +.+.+.+.+.+.@.@.@.@.@.@.@.@.@.=.4.5.5.5.5.5.5.5.5.5.5.5.5.5.5.5.5.2.=.@.@.@.@.@.@.@.@.@.+.+.+.! ) ( / / ( ' ^ I A ",
"( ( ( ( ( ( ( ( +.+.+.+.+.+.@.@.@.@.@.@.@.@.@.@.-.2.5.5.5.5.5.5.5.5.5.5.5.5.2.-.@.@.@.@.@.@.@.@.@.@.+.+.+.! / ( ( ( ( ( ) ( ~ ! ",
"( ( / ( ( ( ( ( ( ( +.+.+.+.#.@.@.@.@.@.@.@.@.@.@.@.%.-.,.1.1.1.1.1.1.,.-.%.@.@.@.@.@.@.@.@.@.@.@.+.+.+.+.) ( ( ( ( ( ( / ( ( ) ",
"^ ^ ~ ^ ( ( ^ ^ ( ( ( ( +.+.+.+.+.@.@.@.@.@.@.@.@.@.@.@.@.@.@.@.@.@.@.@.@.@.@.@.@.@.@.@.@.@.@.@.#.+.+.+.( ( ( / ^ ^ ^ ^ ~ ^ ( ( ",
"[ [ [ ` ( ( ` ' ( ( ( ( ( +.+.+.+.+.@.@.@.@.@.@.@.@.@.@.@.@.@.@.@.@.@.@.@.@.@.@.@.@.@.@.@.@.+.+.+.+.+.+.( ( ( _ ' ' ' ' ' ' ' ` ",
" . . .[ ( ) [ { _ ( ( ( ( ( ( ( +.+.O.@.@.@.@.@.@.@.@.@.@.@.@.@.@.@.@.@.@.@.@.@.@.@.@.@.@.+.+.+.+.+.+.( ( ( ( ` { | } } } } } } ",
"B B V U ( ~ L K ! _ ( ( ( ( ( ( ( ( +.+.+.@.@.@.@.@.@.@.@.@.@.@.@.@.@.@.@.@.@.@.@.@.@.@.+.+.+.+.+.+.+.( ( ( / E L F J J J J J J ",
"5 3 5 k W L s u J } ' ^ ( ( ( ( ( ! P +.@.@.@.@.@.@.@.@.@.@.@.@.@.@.@.@.@.@.@.@.@.@.+.#.+.+.+.+.+.+.( ( ( ( T b a 8 0 t t y y t ",
"0 : X 6 ! Y 4 : m  .[ ~ ( ( ( ) ` ! +.@.@.@.@.@.@.@.@.@.@.@.@.@.@.@.@.@.@.@.@.@.@.+.+.+.+.+.+.+.+.( ( ( ( / I l < + $ * $ + + + ",
"U h $ < W ~ 9 > m  .[ ^ ( ( / ) ' +.@.@.@.@.@.@.@.@.@.@.@.@.@.@.@.@.@.@.@.@.+.+.+.+.+.+.+.+.+.+.( ( ( ( ( / P z 2 % * - @ O O + ",
"o.( j s B v 6 6 V  .' ^ ( ( ) ) / @.@.@.@.@.@.@.@.@.@.@.@.@.@.@.@.@.@.@.@.+.Z Z Z +.+.+.+.+.+.! / ( ( ( ( ( Q x w - ; 5 y s p i ",
"X...' V d < * e J } ' ~ / ) ' ( O.@.@.@.@.@.@.@.@.@.@.@.@.@.@.@.@.@.+.Z Z Z Z Z Z +.+.+.+.+.+.H ! ) ( ( ^ ` ` B r $ $ e B ( ^ R ",
"v J E v 6 o + y J { ' ^ ( ( ^ T +.@.@.@.@.@.@.@.@.@.@.@.@.@.@.O.Z Z Z Z Z Z Z Z Z +.+.+.+.D A P ! ) ( / ~ '  .L y @ $ e v W Y K ",
"9 e u q < $ $ r J { ` ( ( ~ I Z C Z O.O.O.O.O.O.O.O.O.Z Z Z Z Z Z Z Z Z Z Z Z Z Z +.+.+.T ! ! ! / ( ( ( ~ ' | J e $ * 2 e u y t ",
"% $ + % , > = e J } ` ( ) ! A n C A Z Z Z Z Z Z Z Z Z Z Z Z Z Z Z Z Z Z Z Z Z Z Z C +.H / ] ' ) ( ( ( ( ^ ' { J e * ; > $ + + @ "
};
