/* XPM */
static char *result[] = {
/* columns rows colors chars-per-pixel */
"64 64 155 2 ",
"   c #75664B",
".  c #79684B",
"X  c #7A6C54",
"o  c #7F725C",
"O  c #8E6334",
"+  c #926635",
"@  c #956837",
"#  c #976A38",
"$  c #9C6E3A",
"%  c #9E703C",
"&  c #A2733E",
"*  c #C27A3E",
"=  c #AB7C43",
"-  c #B17F45",
";  c #B77F49",
":  c #897B63",
">  c #C57F42",
",  c #14A556",
"<  c #19A95A",
"1  c #19AC5B",
"2  c #1CB05E",
"3  c #27AA5D",
"4  c #1EB360",
"5  c #32AC62",
"6  c #24BA66",
"7  c #3DB066",
"8  c #4DB46D",
"9  c #65BA76",
"0  c #1ECD6E",
"q  c #26C36B",
"w  c #29C46C",
"e  c #21CD6F",
"r  c #2FCA6F",
"t  c #26CE71",
"y  c #29CD71",
"u  c #31CB71",
"i  c #2BD174",
"p  c #2DDC7A",
"a  c #34D979",
"s  c #4BCA78",
"d  c #51CA79",
"f  c #59C97B",
"g  c #4DD07C",
"h  c #6AC77E",
"j  c #9F8B50",
"k  c #B48147",
"l  c #B68248",
"z  c #BA824C",
"x  c #BE894C",
"c  c #A38D53",
"v  c #B08253",
"b  c #BC8752",
"n  c #BD8852",
"m  c #AA935B",
"M  c #988565",
"N  c #988C7A",
"B  c #AB9572",
"V  c #C48145",
"C  c #C2864A",
"Z  c #C58B4F",
"A  c #C68C50",
"S  c #CA8D52",
"D  c #C18E59",
"F  c #CA9155",
"G  c #C6925C",
"H  c #CC9459",
"J  c #D39455",
"K  c #C69561",
"L  c #D4A269",
"P  c #DBAB76",
"I  c #DDB27D",
"U  c #EEB77A",
"Y  c #1B7EBD",
"T  c #377EA7",
"R  c #387EA7",
"E  c #387EA8",
"W  c #3A83AE",
"Q  c #2381BD",
"!  c #3C87B4",
"~  c #6A8E9C",
"^  c #678EA0",
"/  c #6990A1",
"(  c #6E96A9",
")  c #2FEB82",
"_  c #6BCF83",
"`  c #79C681",
"'  c #78D68A",
"]  c #2589C9",
"[  c #3197D8",
"{  c #3399DB",
"}  c #2699E6",
"|  c #2A9AE3",
" . c #35A2E8",
".. c #2EA6F4",
"X. c #459ED4",
"o. c #48A4DC",
"O. c #51A2D2",
"+. c #9C9180",
"@. c #A79A85",
"#. c #BEA883",
"$. c #B4A690",
"%. c #B8B2A6",
"&. c #C4AE8A",
"*. c #DAB888",
"=. c #D5BE94",
"-. c #DCBE95",
";. c #E2B682",
":. c #E4BC89",
">. c #E3BD96",
",. c #C7BAA7",
"<. c #85C986",
"1. c #9AC88B",
"2. c #92D892",
"3. c #A8CB90",
"4. c #BACD96",
"5. c #C6D39C",
"6. c #E9C392",
"7. c #EFCB9B",
"8. c #F1CD9C",
"9. c #D5DDA6",
"0. c #DADCA6",
"q. c #CBCFBE",
"w. c #E9CDA3",
"e. c #EED2A6",
"r. c #EADCAA",
"t. c #F5D4A4",
"y. c #F3D6A9",
"u. c #FCD5AB",
"i. c #F6DAAC",
"p. c #FCDDAD",
"a. c #EBD7BA",
"s. c #F6DDB4",
"d. c #FDDEB1",
"f. c #F6E0AF",
"g. c #FFE1B3",
"h. c #FFEDB7",
"j. c #FFE5B9",
"k. c #FFEBBC",
"l. c #FFF0BF",
"z. c #D3CCC3",
"x. c #DFDDD8",
"c. c #EFDCC0",
"v. c #FFE6C1",
"b. c #FFEBC3",
"n. c #FFECCB",
"m. c #FFF5C3",
"M. c #FFFAC8",
"N. c #FDEDD4",
"B. c #FFF0D4",
"V. c #FFF3DD",
"C. c #E3E2E0",
"Z. c #FFF9E7",
"A. c #F3F3F4",
"S. c #FFFCF4",
"D. c #FDFEFE",
/* pixels */
"@ + O $ ; - % # = z l k k k k k k k k k = % = = = = = = = = = = = = = = = = = = = = = = = = k = = & j & - l l - $ @ @ # @ + + + ",
"$ % $ & - & $ $ & l l k k k k k k k k k j k = = = = = = = = = = = = = = = = = = = = = = & = k % = = = = k l l - % + + $ $ & $ $ ",
"= - - = & $ @ % k l l k k k l k = = = k & = = = = = = = = = = = = = = = = = = = = = = = k k k k - k l k k l l = $ + + % & - - - ",
"- k ; = @ + + % - l l l k k k k k = = & = = = = = = = = = = = = = = = = = & = = = = = = = & % k k l l k l l l - % + @ $ - k k - ",
"% & % $ # @ @ % - l l k k k k k k k k k k k = = = = = = = = = = = = = = = = = = = = = = = = = = - l k k k l l = % @ @ $ & & % $ ",
"+ + + @ @ @ + $ & l l k k k k k k k k k & & = = = = = = = = = = & = = = = = = = = = = = = = = = k k k k k l l = $ + @ @ + + + + ",
"+ @ + @ @ + + $ k l l k k k k l k k k = k & = = & = = = = = = = j & = = = = = = = = = = k k k k k k k k k l l = $ + + @ + + + + ",
"$ $ $ % % % $ % k l k k k k k k k k = = k k k & - = = - = = = = = = = = = k = = = = = k k k k k k k k k k k l - & # $ $ $ $ & $ ",
"- - & - - - = = k k k l k k k l k k k k k k k k k k - k k - k - k k k - k k k ; k - k - k Z Z k k l k k k k l - & & & = = - = = ",
"l l x l l l l l k k k k k k k k k k k l k k k l k k k k k l k k l l k k k k k k k b z Z J F k k k k k k k l k k k l - k k l l l ",
"l l k l l k l l k k k k k k k k k k k l k k k k k k k l k k l ; l k k k z ; ; A S J J A Z Z k k k k l k k k k k k k k k l l l l ",
"- k k k k k k - k k l k k k l k k k k k k k k k k k k k k k k k k k l x A S A Z Z Z A Z S Z k k k k - l k k k k k k k k k k k k ",
"& - k k - k l k l k k k k k k k k k k l k k k k k k k k ; l z ; A A z A C A Z Z Z Z Z Z A Z = - k l k k k k k l k l k k k k k k ",
"= k k k l l k k k k k k l k l k k k k k k k k k k l l z z z A A z x C Z A A Z Z Z Z Z Z F Z = = - k k k k k k k k - k k k k k k ",
"= = k k l l k k k k k l k l k k k k k k k k l ; k l z A A z z ; b Z Z Z A A Z Z Z Z Z Z Z Z = = = - k k l k k k k l k k k k k l ",
"= - - k - - k l k k k k k k - k k l l k k k k k z A z z z z z C Z Z Z Z Z Z Z Z Z Z Z Z S Z = = = - - l k k k k l - k k k k k k ",
"= = = = = - - - k k k k k k = - k k l k k k k x S z ; z ; n Z Z Z Z Z Z Z A Z Z Z Z Z Z A Z = = = = - l k k k l k k k - - - - k ",
"= = = = = = - l k k k k k - = = - k - - k l - J z z z ; b A Z Z Z A Z Z Z Z Z Z Z Z Z Z S Z = = = = - - k k k k k l l k = = - l ",
"= = = & = = - l k k = = = = = = = = = - k l x l z z z C A A A Z Z A Z A Z Z Z Z Z Z Z Z Z Z = = = = = - k k k k k l l - = = - l ",
"= = = = = - - l - = = j = = = = = = = = l l x x z ; b S A A Z Z Z Z Z Z Z A Z Z Z Z Z Z S J Z = = = = = - k k k k - k - = = - l ",
"= = = = = = = = = = = = = = & = = = = = J z z z z z S Z Z Z A A Z Z Z Z Z Z Z Z Z Z Z Z Z J Z = = = = = = = k k = = = = = = = - ",
"= = = = = = = = = = = = = = = = = = = z z l z l z A A Z S A A A A A Z Z Z Z Z Z Z Z Z Z Z J Z = = = = = = = - - = = = = = = = = ",
"= = = = = = = = = = = = = = = = = = = z z z z z b C C C C C C C C Z A A Z Z Z Z Z Z Z Z Z J S = = = = = = = = = = = = = = = = = ",
"= = = = = = = = = = = = = = = = = = = z b l b ; C F L P I I I P H F C C C Z Z Z Z Z F Z Z J Z = = = = = = = = = = = = = = = = = ",
"= = = = = = = = = = = = = = = = = = = ; z z z G ;.t.j.k.g.g.g.g.h.t.:.I L F F Z Z C C C Z Z = = = = = = = = = & = = = = = = = = ",
"= = = = = = = = = = = = = = = = = = = z z z ; :.k.d.d.*.b z b 8.j.g.k.g.g.t.:.;.6.:.;.;.H Z = = = = = = = = = = = = = = = = = = ",
"= = = = & = = = = = = = = = = = = = = b b z ; 6.d.j.8.z I e.8.p.g.g.g.g.g.I G G K 8.k.k.L C = = = = = = = = = = = = = = = = = = ",
"= = = = = = = = = = = = = = = = = = = ; z z ; 8.j.d.p.t.g.g.j.j.g.g.g.g.g.y.t.8.L G g.k.U = = = = = = = = = = = = = = = = = = = ",
"= = = = = = = = = = = = = = = = = = = z z z ; y.g.g.g.b.B.n.g.d.d.g.g.g.g.g.b.V.m.i.g.j.I = = = = = = = = = = = = = = = = = = = ",
"= = = = = = = = = = = = = = = = = = = z b ; K p.g.g.j.S.%.: c.d.g.g.g.g.g.k.@.+.D.B.p.k.7.= = = = = = j = = = = = = = = = = = = ",
"= = = = = = = = = = = = = = = = = = = ; A - P j.g.p.B.A.:   ,.k.d.g.g.g.g.a.o . x.S.f.h.f.= = = = = = = = = = = = = = = = = = = ",
"= = = = = = = = = = = = = = = = = = = = A ; >.j.d.d.n.A.: X q.j.d.g.g.g.g.a.o . C.V.f.h.f.= = = = = = = = = = = = = = = = = = = ",
"= = = = = = = = = = = = = = = = = = = = S K g.g.g.g.p.Z.z.,.v.p.p.g.p.j.d.k.,.,.S.k.d.k.g.= = = = = = = = = = = = = = = = = = = ",
"= = = = = = = = = k & = = = = = = = = = ; 6.j.d.g.g.g.g.v.b.k.V.V.V.N.&.#.y.b.n.g.p.d.b.= = = = = = = = = = = = = = = = = = = = ",
"= = = = = = = = = = = = = = = = = = = = :.k.g.g.g.d.d.g.p.p.V.D.D.D.A.:   7.j.f.g.g.g.m.= = = = = = = = = = = = = = = = = = = = ",
"= = = = = = = = = = = = = = = = = = = = g.k.g.g.g.g.g.g.g.g.d.$.N N N X #.g.g.g.g.g.g.k.= = = = = = = = = = = = = = & = = = = = ",
"= = = = k k % = = = = = = = = = = = = = = k.g.g.g.g.g.g.g.d.g.e.B M M &.d.g.g.f.g.g.g.k.= = = = = = = = = = = = = = = = = = = = ",
"= = = = & = j & = = = = = = = = = = = = = h.j.g.g.g.g.g.g.d.g.j.k.g.g.k.d.g.j.g.g.g.j.9.a = = = = = = = = = = = = = = = = = = = ",
"= = = = = = = = = = & k = = = = = = = t t ' 9.0.9.9.9.y.s.i.i.r.i.i.i.i.i.i.r.9.0.0.5.g 0 p i = = = = = = = = = = & = = = = = = ",
"= = = = = = = = = = = = = = = = = = t ) t t i y t t 0 ` >.-.=.6.=.=.=.=.-.=.s t y i e e y y p = = = = = = = = = k k = = = = = = ",
"= = = = = = = = = = = = = = = = = = t y y y y t y t y t h #.-.>.>.>.>.-.3.d e y t y y y r i i i = = = = = = = = % j = = = = = = ",
"= = = = = = = = = = = = = = = = = 6 q i i y y y y t y y 0 p f ` ` ` ` d e t r t y y y y i w 4 < , = = = = = = = = & = = = = = = ",
"& = = = = = = = = = = = = = = = = 3 1 2 q y y y u y y y i t t 0 e e 0 t y y y y y y y w 1 , 3 <.= = = = = = = = = = = = = = = = ",
"- = = = = = = = = = = = = = = = = i.3.8 , 1 6 y i y y y t y y y y y y t y y y y y w 1 , 5 <.0.k.g.= = = = = = = = = = = = = = = ",
"k k = = k k = = = = = = = = = = g.M.j.s.4.8 < 1 6 q y y y y y y y y y y t y y y 6 , 7 1.r.j.g.g.l.& k = = = = = = = = = = = = = ",
"k k = = k k = = = = = = = = = = g.g.g.g.j.g.5.9 3 w y y y t y y y y y y y y y y q 1.p.j.g.s.g.g.l.h.= = = = = = = = = = = = = = ",
"l k = = k k k k - - = = = = = = g.g.g.g.s.g.d.j._ e y y y y y y y y y y y y t y e 2.j.s.g.g.g.g.g.g.= = = = k k k k k k = & = = ",
"k k = = k k k k l k = = = = = g.m.g.g.g.g.g.d.9.y y y e y y y t y y y y y y y y t y 9.d.g.g.g.g.g.f.k = = = k k k k k k k = = = ",
"k k k k k k k l k k k - = = = f.m.g.g.d.g.g.f._ 0 t t t y y y y y y y y y y y y t 0 _ g.j.g.g.g.g.h.g.k = = k k k k k k k k = = ",
"k k k k k k l k k k l k - = & h.g.g.g.g.g.g.2.0 0 t y y y y y y t y y y y y y y t 0 0 ' d.g.d.g.g.l.g.k k k k k k k k k k k k = ",
"k k k k k k k k k k l k k k l g.g.g.g.g.g.i.y t y y y y y y y t y y y y y y y y y y 0 _ d.g.g.g.g.m.g.k k k k k k k k k k k k k ",
"k k k k k k k k k k k k k l l g.d.p.y.y.s.d.3.0 y y t t t y t u t y y t t t t t t t d e.g.i.e.e.e.g.g.k l k k k k k k k k k k k ",
"k k k k k k k k k k k k k l l g.e.e.w.e.p.g.u._ t y y u u u u u y u u u y r r r y u 4.d.g.p.y.y.y.g.g.k k k k k k k k k k k k k ",
"k k l k k k l l l k k k k k k g.g.g.g.g.g.d.p.*.c c c c c c c c c c c c m j c c c m 7.d.g.g.g.g.g.l.g.k k k k k l k l l k k k k ",
"x l x l k k l l k k k l k k k l.g.g.g.g.g.g.s.P * > > > > > > > V S > > > > > > V v *.d.g.g.g.g.g.l.g.k k k k k l l l l l k k k ",
"= = = = k k - = k l k k k k k g.k.g.g.g.g.g.a.( ~ ^ / / ^ ^ / ( N k ~ ( / / ^ ^ ( / N s.g.g.g.d.g.g.k k k k k k = = = = k = = k ",
"$ $ $ & l & & & = l l k k k k k M.g.g.d.g.g.q.| | | | | | | | ..= = } ..} | | | | } o.s.g.g.g.g.g.k.k k k k k = = # $ $ % % % $ ",
"$ @ O & l - # @ - l l k k k k k g.m.b.k.k.h.q.{ { [ [ [ { { [  .{ = {  .{ { { { { [ X.z.f.k.k.k.k.k k k k k k & # + + @ @ + + + ",
"& & @ $ k k $ @ & x l k k k k k l - = = = = X.[ [ [ [ [ { { [  .{ = {  .[ [ [ [ [ [ [ { O.k k k k k k k k k = & $ + @ @ O O + + ",
"C x & & = & $ $ = l l k k k k l l - = = = = Y Q Q Y ] Q Q Y ] ] ] = Q ] Q Q Q Q Q Q Q ] Y k k k k k k k k k k = $ @ # $ $ = % % ",
"x x l & & @ @ $ - l l k k l l k = = = = = = E E E E E E E E R ! E = E ! T R R R E E E W W = = = k k k k ; l k = = + + $ = - - - ",
"& - x & $ + + & = l k k k k k k = = = = = ; b v b ; v v v v v D v = ; b v v v v v v v v z l = k k k k k - l l = # + + $ = - - - ",
"$ & & $ # + + $ - l k k k k = = = = = = b S z > z z z z z z ; S z = z A z z z z z z z z z F k k k k k k - z l - $ + + $ $ $ $ = ",
"+ + + @ $ # + & = l k k k k = = = = = = ; b v z z ; ; b z ; b S b = z A z z ; z l z z z z A z k k k k k - l z - $ + # # + + O O "
};
