/* XPM */
static char *result[] = {
/* columns rows colors chars-per-pixel */
"64 64 226 2 ",
"   c #672B1F",
".  c #682B1F",
"X  c #682C20",
"o  c #692C20",
"O  c #692C21",
"+  c #682D21",
"@  c #692D21",
"#  c #6A2D21",
"$  c #692E22",
"%  c #692E23",
"&  c #692F23",
"*  c #6A2E22",
"=  c #6A2E23",
"-  c #732B28",
";  c #742B28",
":  c #742B29",
">  c #732C29",
",  c #732D29",
"<  c #732C2A",
"1  c #732D2A",
"2  c #732E2A",
"3  c #732E2B",
"4  c #742C29",
"5  c #742D2A",
"6  c #752D2A",
"7  c #742E2B",
"8  c #752E2B",
"9  c #752F2B",
"0  c #762E2B",
"q  c #742E2C",
"w  c #742F2C",
"e  c #752F2C",
"r  c #762F2C",
"t  c #772F2C",
"y  c #693025",
"u  c #6A3125",
"i  c #693126",
"p  c #6A3126",
"a  c #693226",
"s  c #6A3226",
"d  c #6B3226",
"f  c #6A3227",
"g  c #6B3227",
"h  c #6A3327",
"j  c #6B3327",
"k  c #6B362B",
"l  c #6C3428",
"z  c #6C3429",
"x  c #6C372B",
"c  c #6D382C",
"v  c #6E3A2E",
"b  c #73302D",
"n  c #73312E",
"m  c #73312F",
"M  c #74302E",
"N  c #74312E",
"B  c #75312E",
"V  c #74312F",
"C  c #75322E",
"Z  c #74322F",
"A  c #75322F",
"S  c #74332F",
"D  c #75332F",
"F  c #76322F",
"G  c #76332F",
"H  c #753330",
"J  c #763330",
"K  c #733432",
"L  c #763430",
"P  c #763431",
"I  c #773531",
"U  c #743632",
"Y  c #743633",
"T  c #763733",
"R  c #763734",
"E  c #773835",
"W  c #783A36",
"Q  c #696868",
"!  c #696869",
"~  c #6A6869",
"^  c #6A6969",
"/  c #6B6969",
"(  c #6A696A",
")  c #6B696A",
"_  c #6B6A6A",
"`  c #6C696A",
"'  c #6C6A6A",
"]  c #6D6A6B",
"[  c #6D6B6B",
"{  c #686A6C",
"}  c #696B6C",
"|  c #696B6D",
" . c #6A6B6C",
".. c #6A6B6D",
"X. c #6D6B6C",
"o. c #696C6D",
"O. c #6A6C6D",
"+. c #6B6D6D",
"@. c #696C6E",
"#. c #696D6E",
"$. c #6A6C6E",
"%. c #6A6D6E",
"&. c #6B6D6E",
"*. c #6B6E6E",
"=. c #6B6E6F",
"-. c #6D6C6C",
";. c #6C6D6D",
":. c #6F6C6C",
">. c #6D6E6E",
",. c #6C6E6F",
"<. c #6D6E6F",
"1. c #6D6F6F",
"2. c #6C6F70",
"3. c #6D6F70",
"4. c #6D7070",
"5. c #6F7171",
"6. c #8E3A35",
"7. c #8F3A35",
"8. c #8D3B36",
"9. c #8E3B36",
"0. c #8F3B36",
"q. c #8F3B37",
"w. c #8F3C37",
"e. c #8D3E39",
"r. c #8E3E39",
"t. c #8F3E39",
"y. c #8E3E3A",
"u. c #8E3F3A",
"i. c #903935",
"p. c #903A35",
"a. c #913A35",
"s. c #913B35",
"d. c #903A36",
"f. c #903B36",
"g. c #913B36",
"h. c #913C36",
"j. c #903C37",
"k. c #913C37",
"l. c #903D37",
"z. c #903D38",
"x. c #913D38",
"c. c #903F3A",
"v. c #8F403A",
"b. c #8F403B",
"n. c #8C413D",
"m. c #8D423D",
"M. c #8F433E",
"N. c #90403B",
"B. c #91403B",
"V. c #91413C",
"C. c #91423C",
"Z. c #90453F",
"A. c #817B74",
"S. c #827B74",
"D. c #827C74",
"F. c #837C74",
"G. c #837D74",
"H. c #837C75",
"J. c #837D75",
"K. c #847D75",
"L. c #857D75",
"P. c #857D76",
"I. c #847E76",
"U. c #857E76",
"Y. c #867F77",
"T. c #828078",
"R. c #838078",
"E. c #838079",
"W. c #828179",
"Q. c #838179",
"!. c #83817A",
"~. c #83827A",
"^. c #848078",
"/. c #848179",
"(. c #858179",
"). c #84817A",
"_. c #84827A",
"`. c #85827A",
"'. c #85837A",
"]. c #85837B",
"[. c #86837B",
"{. c #85847B",
"}. c #86847B",
"|. c #86847C",
" X c #98968B",
".X c #98968C",
"XX c #98978C",
"oX c #99978C",
"OX c #9A978C",
"+X c #99988C",
"@X c #9B988D",
"#X c #9A998D",
"$X c #9B998D",
"%X c #9B9A8D",
"&X c #9B998E",
"*X c #999B8F",
"=X c #9B9A8E",
"-X c #9C998E",
";X c #9C9A8E",
":X c #9D9A8E",
">X c #9D9A8F",
",X c #9A9C90",
"<X c #9A9C91",
"1X c #9B9C91",
"2X c #9B9D91",
"3X c #9A9D92",
"4X c #9B9D92",
"5X c #9A9E92",
"6X c #9B9E92",
"7X c #9B9E93",
"8X c #9C9D91",
"9X c #9C9D92",
"0X c #9C9E92",
"qX c #9D9E92",
"wX c #9C9E93",
"eX c #9C9F93",
"rX c #9D9F93",
"tX c #9E9F93",
"yX c #9EA093",
"uX c #9DA094",
"iX c #9DA194",
"pX c #9DA195",
"aX c #9EA094",
"sX c #9EA194",
"dX c #9EA195",
"fX c #9FA195",
/* pixels */
"j.j.j.j.j.j.j.j.j.j.j.9.e 7 5 m / %.@.` u.g.j.j.j.j.j.j.j.j.j.j.j.j.j.j.j.j.j.j.j.j.j.9.e 7 5 m / %.@.` u.g.j.j.j.j.j.j.j.j.j.j.",
"j.j.j.j.j.j.j.j.j.j.j.9.e 3 5 m / %.@.` u.g.j.j.j.j.j.j.j.j.j.j.j.j.j.j.j.j.j.j.j.j.j.9.e 3 5 m / %.@.` u.g.j.j.j.j.j.j.j.j.j.j.",
"j.j.j.j.j.j.j.j.j.j.k.q.r 7 5 V / %.@.` u.g.j.j.j.j.j.j.j.j.j.j.j.j.j.j.j.j.j.j.j.j.k.q.r 7 5 V / %.@.` u.g.j.j.j.j.j.j.j.j.j.j.",
"9.9.9.9.9.9.9.9.9.9.q.8.9 3 5 n ^ %.@.` u.g.j.j.0.9.9.9.9.9.9.9.9.9.9.9.9.9.9.9.9.9.q.8.9 3 5 n ^ %.@.` u.g.j.j.0.9.9.9.9.9.9.9.",
"e e e e e e e e e e r 9 = % # p ^ %.@.` u.f.j.0.t 9 r e e e e e e e e e e e e e e e r 9 = % # p ^ %.@.` u.f.j.0.t 9 r e e e e e ",
"7 7 7 7 7 7 7 7 7 3 7 2 $ $ @ i ^ %.#.` u.f.j.9.9 3 7 7 7 7 7 7 7 7 7 7 7 7 7 7 7 3 7 2 $ $ @ i ^ %.%.' u.f.j.9.9 3 7 7 7 7 7 7 ",
"7 7 7 7 7 7 7 7 7 7 7 7 = $ @ i ~ $.o.` u.g.x.q.r 7 7 7 7 7 7 7 7 7 7 7 7 7 7 7 7 7 7 7 = $ @ i Q o.o.) u.g.x.q.r 7 7 7 7 7 7 7 ",
"3 3 3 3 3 3 3 3 3 2 7 2 * $ @ i _ ,.*.] e.7.w.8.9 2 3 3 3 3 3 3 3 3 3 3 3 3 3 3 3 2 7 2 * $ @ i [ 3.2.:.e.7.w.8.9 2 3 3 3 3 3 3 ",
"* * * * * * * * * * * * $ $ @ f A.Q.Q.S.J 6 r 9 = $ = * * * * * * * * * * * * * * * * * $ $ X l  X6X4X XI 6 r 9 = $ = * * * * * ",
"$ $ $ $ $ $ $ $ $ $ $ $ $ & @ j G.`.`.J.Z 1 7 3 % $ $ $ $ $ $ $ $ $ $ $ $ $ $ $ $ $ $ $ $ & + l %XdXdX=XP > q 3 % $ $ $ $ $ $ $ ",
"@ @ @ @ @ @ @ @ @ @ @ @ @ @ . u D._._.H.C 4 5 5 # @ @ @ @ @ @ @ @ @ @ @ @ @ @ @ X X X X X +   d #XuXuX$XJ ; 8 5 # @ @ @ @ @ @ @ ",
"i i i i f f f f f f f f f j u x J._._.J.Y b Z n p i i i i i i i i i i i f f f h l l l l l l d v #XaXuX&XR b Z n p i i i i i i i ",
"^ ^ ~ _ A.G.D.G.G.G.G.G.G.G.D.J./././.R.' ~ / ^ ^ ^ ^ ^ ^ ^ ^ ^ ^ ^ ~ _ A.J.D.I.oX$X#X#X#X#X#X#XrXrXaX<X-.~ ) ^ ^ ^ ^ ^ ^ ^ ^ ^ ",
"%.%.%.=.Q.`._._._._._._._._._._./././.R.*.$.%.%.%.%.%.%.%.%.%.%.%.%.%.=.Q.`.).}.eXdXaXaXaXaXaXaXrXqXtX<X3.o.%.%.%.%.%.%.%.%.%.%.",
"..O.} +.W._._._._._._._._._._._._._._.W.*.o.%.@.@.@.@.@.%.%.%.%.....} +.W._.Q.].wXiXuXuXuXuXuXuXuXuXdX5X2.o.%.@.@.@.@.@.%.%.%.%.",
"&.&.+.>.H.U.L.L.L.L.L.L.L.L.L.L.L.L.U.H.] ` ` ` ` ` ` ` / ^ ^ ) +.&.+.>.H.U.K.Y.@X:X;X;X;X;X;X;X;X-X>XOX:.) ' ` ` ` ` ` / ^ / / ",
"R.R.W.H.M.c.b.b.b.b.b.b.b.b.b.b.b.b.b.v.u.u.u.u.u.u.u.e.A m b U D.Q.W.H.M.c.b.b.V.V.V.V.V.V.V.V.V.V.V.V.u.u.u.u.u.u.u.e.A n V m ",
"/.(._.U.c.p.f.f.f.f.f.f.f.f.f.f.f.f.f.f.f.f.f.f.f.f.g.7.0 5 4 C J.`._.U.c.p.f.f.d.d.d.d.d.d.d.d.d.d.d.d.f.f.f.f.f.f.g.7.0 5 5 5 ",
"E.^.!.K.b.f.j.j.j.j.j.j.j.j.j.j.j.j.j.j.j.j.j.j.j.j.x.w.r 7 5 H H._._.L.b.f.j.j.l.z.z.z.z.z.z.z.z.z.z.l.j.j.j.j.j.j.x.w.r 7 7 7 ",
"'.`.{.Y.b.f.j.j.0.9.9.9.9.9.9.9.9.9.9.9.9.9.9.9.9.9.q.8.9 3 , Z J._._.L.b.f.j.j.0.9.9.9.9.9.9.9.9.9.9.9.9.9.9.9.9.9.q.8.9 2 3 3 ",
"9X8XeX@XV.d.l.0.t 9 r e e e e e e e e e e e e e e e r 9 = % @ g G._._.L.b.f.j.0.t 9 r e e e e e e e e e e e e e e e r 9 = $ = * ",
"rXrXpX;XV.p.l.9.9 3 7 7 7 7 7 7 7 7 7 7 7 7 7 7 7 3 7 2 $ $ + f G._._.L.v.f.j.9.9 3 7 7 7 7 7 7 7 7 7 7 7 7 7 7 7 3 7 2 $ $ $ $ ",
"yXtXdX:XC.f.x.q.r 7 7 7 7 7 7 7 7 7 7 7 7 7 7 7 7 7 7 7 = $ @ f G._._.L.N.f.x.q.r 7 7 7 7 7 7 7 7 7 7 7 7 7 7 7 7 7 7 7 = $ $ $ ",
"<X<X5XOXb.6.w.8.9 2 3 3 3 3 3 3 3 3 3 3 3 3 3 3 3 2 7 2 * $ @ f G._._.L.u.7.w.8.9 2 3 3 3 3 3 3 3 3 3 3 3 3 3 3 3 2 7 2 * $ $ $ ",
"1.<.4.[ A 0 r 9 = $ = * * * * * * * * * * * * * * * * * $ $ @ f G._._.J.J 6 r 9 = $ = * * * * * * * * * * * * * * * * * $ $ $ $ ",
"} } o.~ m 5 q 3 % $ $ $ $ $ $ $ $ $ $ $ $ $ $ $ $ $ $ $ $ & @ j G._._.J.D 1 q 3 = $ $ $ $ $ $ $ $ $ $ $ $ $ $ $ $ $ $ $ $ $ $ $ ",
"O.O.%./ b ; 5 > @ + @ @ @ @ @ @ @ @ @ @ @ @ @ @ @ @ @ @ @ @ . u D.)./.F.N - 5 > O X X X @ @ @ @ @ @ @ @ @ @ @ @ @ @ @ @ @ @ @ @ ",
"O.O.%.) R J P L j s f f i i i i i i i i i i i i i i i i f j u x I.}.].I.E G P L z l l l i i i i i i i i i i i i i i i i i i i i ",
"O.O.} <..X&X&XoXI.D.J.A._ ~ ^ ^ ^ ^ ^ ^ ^ ^ ^ ^ ^ ^ ~ _ A.J.D.I.,X0X9X8X&X$X$X$X#X#X%X X[ Q ^ ^ ^ ^ ^ ^ ^ ^ ^ ^ ^ ^ ^ ^ ^ ^ ^ ^ ",
"O.O.} 1.6XdXsXeX}.).`.Q.=.$.%.%.%.%.%.%.%.%.%.%.%.%.$.,.Q.`.).}.9XyXrXrXaXaXaXaXaXaXdX6X3.o.%.%.%.%.%.%.%.%.%.%.%.%.%.%.%.%.%.%.",
"#.%.o.2.3XsXuXwX].Q._.W.*.@.%.%... .....o.@.@.@.@.#.o.*.W._.Q.].eXpXuXuXuXuXuXuXuXuXdX3X3.o.%.%.O.O.O.O.o.@.@.@.@.@.@.@.@.@.@.@.",
"` ' ) :.OX:X;X@XY.K.U.H.' ~ / ) +.&.&.+.' ` ` ` ` ` ` ] H.U.K.Y.@X:X;X;X;X;X;X;X;X-X>XOX[ ~ ) ( O.O.O.O.' ` ` ` ` ` ` ` ` ` ` ` ",
"u.u.u.u.V.V.V.V.b.v.N.u.A m b U D.Q.W.H.m.r.u.u.u.u.u.u.v.b.v.b.V.V.V.V.V.V.V.V.V.V.C.b.A m M K ( %.@.' n.r.u.u.u.u.u.u.u.u.u.u.",
"f.f.f.f.d.d.d.d.f.f.f.7.0 5 4 C J.`._.U.c.a.h.g.f.f.f.f.f.f.f.f.d.d.d.d.d.d.d.d.d.p.f.6.0 5 4 M / %.@.` r.s.f.g.f.f.f.f.f.f.f.f.",
"j.j.j.j.l.z.z.z.j.j.x.w.r 7 5 H H._._.L.b.f.j.j.j.j.j.j.j.j.j.j.z.z.z.z.z.z.z.z.z.l.x.w.r 7 5 Z / %.@.` u.f.j.j.j.j.j.j.j.j.j.j.",
"9.9.9.9.9.9.9.9.9.9.q.8.9 3 , Z J._._.L.b.f.j.j.0.9.9.9.9.9.9.9.9.9.9.9.9.9.9.9.9.9.q.8.9 3 5 n ^ %.@.` u.g.j.j.0.9.9.9.9.9.9.9.",
"e e e e e e e e e e r 9 = % @ g G._._.L.b.f.j.0.t 9 r e e e e e e e e e e e e e e e r 9 = % # p ^ %.@.` u.f.j.0.t 9 r e e e e e ",
"7 7 7 7 7 7 7 7 7 3 7 2 $ $ + f G._._.L.v.f.j.9.9 3 7 7 7 7 7 7 7 7 7 7 7 7 7 7 7 3 7 2 $ $ @ i ^ %.#.` u.f.j.9.9 3 7 7 7 7 7 7 ",
"7 7 7 7 7 7 7 7 7 7 7 7 = $ @ f G._._.L.N.f.x.q.r 7 7 7 7 7 7 7 7 7 7 7 7 7 7 7 7 7 7 7 = $ @ i ~ $.o.` u.g.x.q.r 7 7 7 7 7 7 7 ",
"3 3 3 3 3 3 3 3 3 2 7 2 * $ @ f G._._.L.u.7.w.8.9 2 3 3 3 3 3 3 3 3 3 3 3 3 3 3 3 2 7 2 * $ @ i _ ,.*.] e.7.w.8.9 2 3 3 3 3 3 3 ",
"* * * * * * * * * * * * $ $ @ f G._._.J.J 6 r 9 = $ = * * * * * * * * * * * * * * * * * $ $ @ f A.Q.Q.S.J 6 r 9 = $ = * * * * * ",
"$ $ $ $ $ $ $ $ $ $ $ $ $ & @ j G._._.J.S 1 q 3 % $ $ $ $ $ $ $ $ $ $ $ $ $ $ $ $ $ $ $ $ & @ h J.`.`.K.S 1 q 3 = $ $ $ $ $ $ $ ",
"X X X X @ @ @ @ X X X X X + . u D._._.H.B : 5 , # @ @ @ @ @ @ @ X X X X X X X X @ @ @ @ @ @ o s D.)./.F.B : 5 , O X X X @ @ @ @ ",
"l l l l i i i i l l l l l l j c J._._.J.T B H Z p i i i i i i i l l l l l l l l i i i i i a y k I.}.].I.T B H S l l l l i i i i ",
"#X#X%X X[ ! ! [  X%X#X#X#X#X$X+X`./././.J.H.J.S._ ~ ^ ^ ^ ^ Q [  X%X#X#X#X#X%X X[ Q ^ ^ ^ ^ Q [ *X0X0X,XI.F.H.I.oX#X%X X[ Q ^ ^ ",
"dXuXdX7X4.O.O.4.6XdXaXaXaXaXdXeX`.^././._._.`.Q.,.$.%.%.%.%.o.3.7XdXuXdXaXaXdX6X4.o.%.%.%.%.o.3.1XyXrX9X}._._.}.eXdXdX6X3.o.%.%.",
"rXrXaX<X2.o.o.2.3XdXuXuXuXuXiXwX{.~._._._._._.W.*.o.#.@.%.%.o.3.<XaXrXrXuXuXdX3X2.o.%.@.@.%.o.2.5XdXpXeX].Q.Q.].wXuXsX3X3.o.%.%.",
"9X2X0X*X:.) ) :.OX>X-X;X;X;X:X@XY.K.P.L.L.L.U.H.] ` ` ` / ) ~ X.*X0X2X8X;X-X>XOX:.) ' ` ` ' ) :.OX:X;X@XY.K.K.Y.@X;X:XOX[ ~ ) / ",
"'.`.{.Y.m.r.u.u.V.V.V.V.V.V.V.V.b.b.b.b.b.b.b.v.u.y.u.e.A m b Y I.}.].Y.Z.B.C.V.u.u.u.u.u.u.u.u.V.V.V.V.b.b.b.b.V.V.C.b.A n V m ",
"E.^.!.K.c.a.h.f.d.d.d.d.d.d.d.d.f.f.f.f.f.f.f.f.f.f.g.7.0 5 4 C F._.Q.K.t.i.f.f.f.f.f.f.f.f.f.f.d.d.d.d.f.f.f.f.d.p.f.6.0 5 5 5 ",
"/.(._.U.b.f.j.j.l.z.z.z.z.z.z.z.j.j.j.j.j.j.j.j.j.j.x.w.r 7 5 H J._._.P.b.f.z.j.j.j.j.j.j.j.j.j.l.z.z.z.j.j.j.j.z.l.x.w.r 7 7 7 ",
"R.R.W.H.v.f.j.j.0.9.9.9.9.9.9.9.9.9.9.9.9.9.9.9.9.9.q.8.9 3 , Z J._._.L.b.f.j.j.0.9.9.9.9.9.9.9.9.9.9.9.9.9.9.9.9.9.q.8.9 2 3 3 ",
"&.;.*.] u.f.j.0.t 9 r e e e e e e e e e e e e e e e r 9 = % @ g G._._.L.b.f.j.0.t 9 r e e e e e e e e e e e e e e e r 9 = $ = * ",
"O.O.#.` y.f.j.9.9 3 7 7 7 7 7 7 7 7 7 7 7 7 7 7 7 3 7 2 $ $ + f G._._.L.v.f.j.9.9 3 7 7 7 7 7 7 7 7 7 7 7 7 7 7 7 3 7 2 $ $ $ $ ",
"} } o.) u.g.x.q.r 7 7 7 7 7 7 7 7 7 7 7 7 7 7 7 7 7 7 7 = $ @ f G._._.L.N.f.x.q.r 7 7 7 7 7 7 7 7 7 7 7 7 7 7 7 7 7 7 7 = $ $ $ ",
"1.1.2.:.e.7.w.8.9 2 3 3 3 3 3 3 3 3 3 3 3 3 3 3 3 2 7 2 * $ @ f G._._.L.u.7.w.8.9 2 3 3 3 3 3 3 3 3 3 3 3 3 3 3 3 2 7 2 * $ $ $ ",
"<X<X6X XI 6 r 9 = $ = * * * * * * * * * * * * * * * * * $ $ @ f G._._.J.J 6 r 9 = $ = * * * * * * * * * * * * * * * * * $ $ $ $ ",
"yXrXdX&XP < w 3 % $ $ $ $ $ $ $ $ $ $ $ $ $ $ $ $ $ $ $ $ & @ j G._._.J.Z 1 7 3 % $ $ $ $ $ $ $ $ $ $ $ $ $ $ $ $ $ $ $ $ $ $ $ ",
"yXrXdX&XF - 5 > @ + @ @ @ @ @ @ @ @ @ @ @ @ @ @ @ @ @ @ X + . u D.)./.F.C 4 5 5 # @ @ @ X X X X @ @ @ @ @ @ @ @ @ @ @ @ @ @ @ @ ",
"<X<X6XXXW F P L j s f f i i i i i i i i i i i i i i i i l l j c I.[.{.I.Y b Z n p i i i l l l l i i i i i i i i i i i i i i i i ",
"1.1.,.5.XX&X&XoXI.D.J.A._ ~ ^ ^ ^ ^ ^ ^ ^ ^ ^ ^ ^ ^ Q [  X%X#X#X8X2X0X*XX.~ ) ^ ^ ^ Q [  X$X$X X[ Q ^ ^ ^ ^ ^ ^ ^ ^ ^ ^ ^ ^ ^ ^ ",
"} | { ,.6XdXdXeX|._.].!.=.%.%.%.%.%.%.%.%.%.%.%.%.%.@.4.7XfXdXdXrXrXaX2X4.o.%.%.%.%.@.4.7XdXdX7X4.@.%.%.%.%.%.%.%.%.%.%.%.%.%.%.",
"O.O.| 1.<XtXrX2X`.R./.T.+...O.O.O.O.O.O.O.O.O.O.O.O.} <.<XtXqXrXrXrXyX<X<.} O.O.O.O.} <.<XrXrX<X<.} O.O.O.O.O.O.O.O.O.O.O.O.O.O.",
"O.O.} 1.<XyXrX9X'.E./.R.&.O.O.O.O.O.O.O.O.O.O.O.O.O.} 1.<XaXrXrXrXrXaX<X1.} O.O.O.O.} 1.<XyXyX<X1.} O.O.O.O.O.O.O.O.O.O.O.O.O.O."
};
